<svg xmlns="http://www.w3.org/2000/svg" viewBox="0 0 50.05 50.3"><defs><style>.cls-1{fill:#fff;}.cls-2{fill:none;}</style></defs><title>Asset 1</title><g id="Layer_2" data-name="Layer 2"><g id="Layer_1-2" data-name="Layer 1"><path class="cls-1" d="M29.41,49.55A15.08,15.08,0,0,1,17,43.7l-.07-.07L2.52,31l-.09-.06A3.78,3.78,0,0,1,.53,27.65,3.66,3.66,0,0,1,4.17,24a3.59,3.59,0,0,1,2.9,1.5l5.55,5.65a.5.5,0,0,0,.36.15l.15,0a.5.5,0,0,0,.34-.39,11,11,0,0,1,.42-1.54,7.48,7.48,0,0,0,.49-2.26V4.17a3.5,3.5,0,1,1,7,0V18.43a.61.61,0,0,0,.15.4.55.55,0,0,0,.35.19h0c.43,0,.43,0,.51,0l0,0c.25,0,.64-.13.64-.55a3.66,3.66,0,0,1,7.14-1.17.5.5,0,0,0,.44.34l.26,0a.5.5,0,0,0,.32-.11,3.66,3.66,0,0,1,5.87,1.85.5.5,0,0,0,.23.3l.54.33a.5.5,0,0,0,.27.08l.17,0a3.65,3.65,0,0,1,1.21-.21c3.5,0,5.34,7.13,5.34,9.59a.48.48,0,0,0,0,.12,16,16,0,0,1-15.47,20Z" transform="translate(0.11)"/><path d="M17.39,1a3,3,0,0,1,3,3.17V18.52c0,.27.36.51.54.7a1.68,1.68,0,0,0,1,.28h0a1.81,1.81,0,0,0,.7-.05c.9-.16,1-.77,1-1a3.16,3.16,0,0,1,6.16-1,1,1,0,0,0,.87.68h.3a1,1,0,0,0,.64-.23,3.16,3.16,0,0,1,5.07,1.6,1,1,0,0,0,.47.6l.53.32a1,1,0,0,0,.86.1,3.16,3.16,0,0,1,1-.18c3.07,0,4.84,6.9,4.84,9.09a1,1,0,0,0,0,.25,15.54,15.54,0,0,1-15,19.4,14.6,14.6,0,0,1-12-5.62,1,1,0,0,0-.17-.19L2.85,30.6l-.18-.12A3.27,3.27,0,0,1,1,27.65a3.16,3.16,0,0,1,3.14-3.17,3.05,3.05,0,0,1,2.5,1.29l.09.11,5.5,5.59a1,1,0,0,0,1.7-.54,8.8,8.8,0,0,1,.15-1.47,7.66,7.66,0,0,0,.26-2.41V4.17a3,3,0,0,1,3-3.17m0-1a4,4,0,0,0-4,4.17V27.06a24.58,24.58,0,0,1-.65,3.72L7.36,25.18a4,4,0,0,0-3.24-1.7A4.12,4.12,0,0,0,0,27.65a4.7,4.7,0,0,0,2.18,4L16.61,44.5h0c3,4,7.63,5.8,12.8,5.8A16.61,16.61,0,0,0,45.88,33.67a17.24,17.24,0,0,0-.52-4.2v0c0-2.3-1.8-10.11-5.84-10.11a4.15,4.15,0,0,0-1.38.23l-.56-.34a4.16,4.16,0,0,0-6.67-2.11l-.23,0a4.16,4.16,0,0,0-8.11,1.33s-.59.06-.59.09h-.6V4.17a4,4,0,0,0-4-4.17Z" transform="translate(0.11)"/><circle class="cls-1" cx="18.3" cy="4.26" r="1.57"/><path d="M18.18,3.06A1.2,1.2,0,1,1,17,4.26a1.2,1.2,0,0,1,1.2-1.2m0-.75a1.95,1.95,0,1,0,1.95,1.95,1.95,1.95,0,0,0-1.95-1.95Z" transform="translate(0.11)"/><circle class="cls-1" cx="4.25" cy="28.53" r="1.57"/><path d="M4.14,27.33a1.2,1.2,0,1,1-1.2,1.2,1.2,1.2,0,0,1,1.2-1.2m0-.75a1.95,1.95,0,1,0,1.95,1.95,1.95,1.95,0,0,0-1.95-1.95Z" transform="translate(0.11)"/><rect class="cls-2" width="50.05" height="50.05"/></g></g></svg>