<svg xmlns="http://www.w3.org/2000/svg" viewBox="0 0 50.05 50.3"><defs><style>.cls-1{fill:#fff;}.cls-2{fill:none;}</style></defs><title>Asset 3</title><g id="Layer_2" data-name="Layer 2"><g id="Layer_1-2" data-name="Layer 1"><path class="cls-1" d="M29.38,49.05A15.08,15.08,0,0,1,17,43.2l-.07-.07L2.49,30.48l-.09-.06A3.78,3.78,0,0,1,.5,27.15a3.66,3.66,0,0,1,3.64-3.67A3.59,3.59,0,0,1,7,25l5.55,5.65a.5.5,0,0,0,.36.15l.15,0a.5.5,0,0,0,.34-.39,11,11,0,0,1,.42-1.54,7.48,7.48,0,0,0,.49-2.26l-2-22.93A3.5,3.5,0,0,1,15.86,0c1.1,0,3.06.79,3.5,3.74l2,14.26a.53.53,0,0,0,.14.37.51.51,0,0,0,.35.16h0c.43,0,.47,0,.55,0,.25,0,.64-.13.64-.55a3.66,3.66,0,0,1,7.14-1.17.5.5,0,0,0,.44.34l.26,0a.5.5,0,0,0,.32-.12,3.66,3.66,0,0,1,5.87,1.85.5.5,0,0,0,.23.3l.54.33a.49.49,0,0,0,.26.08.48.48,0,0,0,.17,0,3.67,3.67,0,0,1,1.21-.21c3.5,0,5.34,7.13,5.34,9.59a.48.48,0,0,0,0,.12,16,16,0,0,1-15.47,20Z" transform="translate(0.15 0.5)"/><path d="M15.86,1c.26,0,2.27-.16,2.75,3.06L20.35,18v0c0,.27.36.51.54.7a1.68,1.68,0,0,0,1,.28h0a1.81,1.81,0,0,0,.7-.05c.9-.16,1-.77,1-1a3.16,3.16,0,0,1,6.16-1,1,1,0,0,0,.87.68h.3a1,1,0,0,0,.64-.23A3.16,3.16,0,0,1,36.59,19a1,1,0,0,0,.47.6l.53.32a1,1,0,0,0,.86.1,3.16,3.16,0,0,1,1-.18c3.07,0,4.84,6.9,4.84,9.09a1,1,0,0,0,0,.25,15.54,15.54,0,0,1-15,19.4,14.6,14.6,0,0,1-12-5.62,1,1,0,0,0-.17-.19L2.82,30.1,2.65,30A3.27,3.27,0,0,1,1,27.15,3.16,3.16,0,0,1,4.14,24a3.05,3.05,0,0,1,2.5,1.29l.09.11L12.24,31a1,1,0,0,0,1.7-.54,10.46,10.46,0,0,1,.4-1.47,7.85,7.85,0,0,0,.51-2.41s0-.06,0-.09l-2-22.59a2.81,2.81,0,0,1,3-2.88h.5m-.49-1h0a3.82,3.82,0,0,0-4,3.92l2,22.76c0,1.18-.69,2.36-.9,3.66l-5.5-5.62A4.08,4.08,0,0,0,4.14,23,4.14,4.14,0,0,0,0,27.16a4.68,4.68,0,0,0,2.16,3.95L16.58,44h0c3,4,7.63,5.8,12.8,5.8A16.61,16.61,0,0,0,45.85,33.17a17.24,17.24,0,0,0-.52-4.2v0c0-2.3-1.8-10.11-5.84-10.11a4.15,4.15,0,0,0-1.38.23l-.56-.34a4.16,4.16,0,0,0-6.67-2.11l-.23,0a4.16,4.16,0,0,0-8.11,1.33S22,18,22,18h-.6v-.09l-1.75-14C19.14.79,17.3,0,15.86,0Z" transform="translate(0.15 0.5)"/><circle class="cls-1" cx="16.3" cy="4.26" r="1.57"/><path d="M16.15,2.56A1.2,1.2,0,1,1,15,3.76a1.2,1.2,0,0,1,1.2-1.2m0-.75A1.95,1.95,0,1,0,18.1,3.76a1.95,1.95,0,0,0-1.95-1.95Z" transform="translate(0.15 0.5)"/><circle class="cls-1" cx="4.25" cy="28.53" r="1.57"/><path d="M4.11,26.83A1.2,1.2,0,1,1,2.91,28a1.2,1.2,0,0,1,1.2-1.2m0-.75A1.95,1.95,0,1,0,6.05,28a1.95,1.95,0,0,0-1.95-1.95Z" transform="translate(0.15 0.5)"/><rect class="cls-2" width="50.05" height="50.05"/></g></g></svg>