<svg xmlns="http://www.w3.org/2000/svg" viewBox="0 0 48.13 48"><defs><style>.cls-1{fill:#fff;}.cls-2{fill:none;}</style></defs><title>Asset 2</title><g id="Layer_2" data-name="Layer 2"><g id="Layer_1-2" data-name="Layer 1"><path class="cls-1" d="M28.49,36l-.56,0a26.61,26.61,0,0,1-13.42-5c-2.27-1.85-12-12.87-12.14-13l-.1-.08A3.69,3.69,0,0,1,4.07,11l.42,0a3.66,3.66,0,0,1,2.78,1.83l4.54,5.72a.38.38,0,0,0,.29.14h.09a.37.37,0,0,0,.28-.3,15.58,15.58,0,0,1,2.34-5.94.38.38,0,0,0,.06-.2,2.76,2.76,0,0,0-.11-.73,2.71,2.71,0,0,1-.07-.38,3.52,3.52,0,0,0-3.52-3.52,3.36,3.36,0,0,0-2.26.81,3.7,3.7,0,0,1-6.79-2A3.74,3.74,0,0,1,3.26,3.72,10.44,10.44,0,0,1,10.9.37a10.56,10.56,0,0,1,9.17,5.34l.55,1.08a.38.38,0,0,0,.33.21.37.37,0,0,0,.16,0l.36-.16a.38.38,0,0,0,.22-.35,3.69,3.69,0,0,1,7.19-1.26.38.38,0,0,0,.33.25l.25,0a.38.38,0,0,0,.24-.09A3.69,3.69,0,0,1,35.6,7.24a.38.38,0,0,0,.17.23l.54.32a.37.37,0,0,0,.2.06l.12,0a3.69,3.69,0,0,1,1.22-.21c3.5,0,5.33,7,5.33,9.48a16.57,16.57,0,0,1,.51,4c0,3.81-1.89,7.56-5.32,10.58-3,2.66-6.81,4.31-9.89,4.31Z" transform="translate(0 11.58)"/><path d="M10.9.75a10.17,10.17,0,0,1,8.82,5.12L20.27,7a.75.75,0,0,0,1,.34l.25-.12.1,0a.75.75,0,0,0,.44-.7V6.37A3.32,3.32,0,0,1,28.52,5.3a.75.75,0,0,0,.65.51h.28a.75.75,0,0,0,.48-.17,3.32,3.32,0,0,1,5.31,1.68.75.75,0,0,0,.35.45l.52.31a.75.75,0,0,0,.65.07A3.31,3.31,0,0,1,37.86,8c3.2,0,5,6.84,5,9.11a.75.75,0,0,0,0,.19,15.41,15.41,0,0,1,.49,3.83c0,8.28-9,14.51-14.84,14.51l-.53,0a26.19,26.19,0,0,1-13.2-4.9c-2.25-1.83-12-12.82-12.09-12.93a.75.75,0,0,0-.19-.16,3.32,3.32,0,0,1,1.6-6.22l.38,0a3.29,3.29,0,0,1,2.5,1.65l.06.09,4.51,5.68a.75.75,0,0,0,.59.28l.19,0a.75.75,0,0,0,.55-.6,15.18,15.18,0,0,1,2.28-5.79.75.75,0,0,0,.12-.37,2.88,2.88,0,0,0-.12-.85c0-.13-.06-.24-.06-.29A3.9,3.9,0,0,0,11.18,7.3a3.77,3.77,0,0,0-2.51.9.75.75,0,0,0-.13.15A3.22,3.22,0,0,1,5.82,9.77,3.32,3.32,0,0,1,2.5,6.45,3.39,3.39,0,0,1,3.55,4,10,10,0,0,1,10.9.75m0-.75A10.83,10.83,0,0,0,3,3.44a4.12,4.12,0,0,0,2.81,7.08A4,4,0,0,0,9.16,8.77a3,3,0,0,1,2-.72,3.14,3.14,0,0,1,3.14,3.14c0,.21.22.9.18,1.1h0a16,16,0,0,0-2.39,6.08L7.6,12.7a4.06,4.06,0,0,0-3.07-2l-.47,0a4.07,4.07,0,0,0-2,7.62S12,29.4,14.28,31.29A27,27,0,0,0,27.9,36.35l.58,0c6.25,0,15.59-6.65,15.59-15.26a16.13,16.13,0,0,0-.51-4h0c0-2.25-1.75-9.86-5.7-9.86a4.05,4.05,0,0,0-1.35.23L36,7.14a4.07,4.07,0,0,0-6.51-2.06l-.22,0a4.07,4.07,0,0,0-7.92,1.3s0,.06,0,.09l-.37.17-.55-1.1A10.9,10.9,0,0,0,10.9,0Z" transform="translate(0 11.58)"/><circle class="cls-1" cx="3.92" cy="27.15" r="1.57"/><path d="M3.92,14.38a1.2,1.2,0,1,1-1.2,1.2,1.2,1.2,0,0,1,1.2-1.2m0-.75a1.95,1.95,0,1,0,1.95,1.95,1.95,1.95,0,0,0-1.95-1.95Z" transform="translate(0 11.58)"/><path d="M5.14,2.68A1.2,1.2,0,0,1,4,4.18a3.38,3.38,0,0,1-.44,0,14.42,14.42,0,0,1,1.6-1.47m.19-1.1S2.52,3.7,2.6,4.36c.06.5.84.57,1.38.57A1.95,1.95,0,0,0,5.33,1.58Z" transform="translate(0 11.58)"/><rect class="cls-2" x="0.13" width="48" height="48"/></g></g></svg>