<svg id="Layer_1" data-name="Layer 1" xmlns="http://www.w3.org/2000/svg" viewBox="0 0 50 50"><defs><style>.cls-1{fill:#fff;stroke:#000;stroke-linejoin:round;stroke-width:0.5px;}</style></defs><title>iso</title><path class="cls-1" d="M25,40.17h0a15.32,15.32,0,0,1-10.72-4.45A14.69,14.69,0,0,1,9.83,25.16a15.13,15.13,0,0,1,4.44-10.74A15.46,15.46,0,0,1,25,9.83h0A15.45,15.45,0,0,1,35.72,14.4,15.08,15.08,0,0,1,25,40.17Zm0-27.4a12.42,12.42,0,0,0-8.59,3.71,11.94,11.94,0,0,0,0,17A12.25,12.25,0,0,0,25,37,12.06,12.06,0,0,0,37.17,25.1a12.2,12.2,0,0,0-3.57-8.63,12.43,12.43,0,0,0-8.6-3.7Z"/><path class="cls-1" d="M26.43,23.5V20.12c1,.07,1.93,1.46,2,2.44h3.28c0-2.94-3.29-5.45-5.29-5.58V15.7h-3V17c-1,0-5.06,1.15-5.06,4.83,0,3.27,2.06,4.17,5.06,4.45V30c-2-.42-1.78-1.54-2-1.54H18.11c.21,2.94,3.31,4.43,5.31,4.69v2.15h3V33.15c2-.13,5.46-2.24,5.46-5.13C31.88,24.7,28.43,23.76,26.43,23.5Zm-3-.54c-3,0-3-2.42,0-2.81Zm3,7V26.79C28.43,26.86,29.43,29.55,26.43,30Z"/></svg>