<svg id="Layer_1" data-name="Layer 1" xmlns="http://www.w3.org/2000/svg" viewBox="0 0 50 50"><defs><style>.cls-1,.cls-2{fill:#fff;stroke:#000;stroke-width:0.5px;}.cls-1{stroke-linejoin:round;}.cls-2{stroke-miterlimit:10;}</style></defs><title>iso</title><path class="cls-1" d="M32.12,11.64A3.32,3.32,0,1,0,28.8,8.32a3.32,3.32,0,0,0,3.32,3.32Z"/><path class="cls-1" d="M27.84,17.75l0,25.36a1.87,1.87,0,1,0,3.73-.06l0-14.76h.72V43a1.88,1.88,0,1,0,3.77.08V17.63h.66v9.1a1.48,1.48,0,1,0,2.95,0V16.83a4.06,4.06,0,0,0-4.08-4.26H29.71a3.73,3.73,0,0,0-3.28,1.78l-3,4.35H18.27a1.47,1.47,0,1,0,0,2.95h6A1.6,1.6,0,0,0,25.58,21l2.26-3.24Z"/><polygon class="cls-1" points="21.44 44.98 24.6 28.21 22.22 28.21 19.46 42.64 15.37 42.64 12.65 28.21 10.29 28.21 13.37 44.98 21.44 44.98 21.44 44.98"/><ellipse class="cls-2" cx="14.3" cy="23.94" rx="1.33" ry="0.88" transform="translate(-6.17 5.01) rotate(-16.38)"/><ellipse class="cls-2" cx="14.54" cy="24.75" rx="1.33" ry="0.88" transform="translate(-6.39 5.11) rotate(-16.38)"/><ellipse class="cls-2" cx="18.98" cy="27.38" rx="1.33" ry="0.88" transform="translate(-6.95 6.47) rotate(-16.38)"/><ellipse class="cls-2" cx="18.75" cy="26.57" rx="1.33" ry="0.88" transform="translate(-6.73 6.37) rotate(-16.38)"/><ellipse class="cls-2" cx="15.75" cy="32.42" rx="0.88" ry="1.33" transform="translate(-19.88 26.96) rotate(-55.38)"/><ellipse class="cls-2" cx="16.23" cy="31.73" rx="0.88" ry="1.33" transform="translate(-19.11 27.06) rotate(-55.38)"/></svg>