<svg id="Layer_1" data-name="Layer 1" xmlns="http://www.w3.org/2000/svg" viewBox="0 0 50 50"><defs><style>.cls-1{fill:#fff;stroke:#000;stroke-miterlimit:10;stroke-width:0.5px;}</style></defs><title>iso</title><ellipse class="cls-1" cx="24.54" cy="32.83" rx="12.63" ry="11.92"/><path class="cls-1" d="M33,24V8.16c0-1.61-.65-2.91-2.56-2.91s-2.56,1.3-2.56,2.91V24"/><path class="cls-1" d="M21.85,30.09V22.2a2.65,2.65,0,0,0-2.5-2.91,2.65,2.65,0,0,0-2.5,2.91v7.89A2.65,2.65,0,0,0,19.35,33,2.65,2.65,0,0,0,21.85,30.09Z"/><path class="cls-1" d="M16.85,29.63V23.29a2.09,2.09,0,0,0-2-2.33,2.09,2.09,0,0,0-2,2.33v6.34a2.09,2.09,0,0,0,2,2.33A2.09,2.09,0,0,0,16.85,29.63Z"/><circle class="cls-1" cx="19.66" cy="30.16" r="1.24"/><path class="cls-1" d="M27.85,30.09V22.2a3,3,0,0,0-6,0v7.89a3,3,0,0,0,6,0Z"/><circle class="cls-1" cx="24.64" cy="30.16" r="1.24"/><circle class="cls-1" cx="14.67" cy="29.27" r="1.24"/><path class="cls-1" d="M36.58,36.43a5,5,0,0,0,1.52-3.6,4.53,4.53,0,0,0-4.47-4.67c-.58,0-1.13.46-1.64.46H26.86a2.51,2.51,0,1,0,0,5h2.42a3.52,3.52,0,0,0,1.85,3"/><circle class="cls-1" cx="26.62" cy="31.17" r="1.24"/></svg>