<svg id="Layer_1" data-name="Layer 1" xmlns="http://www.w3.org/2000/svg" viewBox="0 0 50 50"><defs><style>.cls-1{fill:#fff;stroke:#000;stroke-linejoin:round;stroke-width:0.5px;}</style></defs><title>iso</title><path class="cls-1" d="M43,32.48H7a3.5,3.5,0,0,0,3.59,3.45H39.44A3.34,3.34,0,0,0,43,32.48Z"/><path class="cls-1" d="M36.18,14.07H14.66V27.68a3.72,3.72,0,0,0,3.44,3.65h14c2,0,2.36-1.93,2.36-3.65V26.52c4.65,0,7.38-2.78,7.38-6.23S39.48,14.07,36.18,14.07Zm-1.76,9.78V16.37h1.76c2.73,0,3.09,2.53,3.08,3.77C39.26,22.14,37.9,24,34.41,23.85Z"/></svg>