<svg id="Layer_1" data-name="Layer 1" xmlns="http://www.w3.org/2000/svg" viewBox="0 0 50 50"><defs><style>.cls-1{fill:#fff;}.cls-1,.cls-2{stroke:#000;stroke-miterlimit:10;stroke-width:0.5px;}.cls-2{fill:none;}</style></defs><title>iso</title><path class="cls-1" d="M8,14.78,35.3,43.49c.71.75,1.38.76,1.52,0l5.4-28.7a1.49,1.49,0,0,0-.63-1.54c-10.52-5.63-25.11-5.61-33.7,0C7.45,13.55,7.53,14.24,8,14.78Z"/><path class="cls-1" d="M8.21,10.2A4.58,4.58,0,0,0,7.28,14l4.11,4.32"/><path class="cls-1" d="M8.36,11.72,35.62,40.43c.71.75,1.79.75,1.93,0l5.24-28.82a1.54,1.54,0,0,0-.88-1.45c-10.52-5.63-25.11-5.61-33.7,0C7.78,10.49,7.85,11.18,8.36,11.72Z"/><path class="cls-2" d="M42.67,12.24C32.13,6.63,17.52,6.67,9,12.35"/><path class="cls-2" d="M21.23,16.32c.49,1.29-.15,2.33-1.44,2.33a3.79,3.79,0,0,1-3.23-2.33C16.07,15,16.71,14,18,14A3.79,3.79,0,0,1,21.23,16.32Z"/><path class="cls-2" d="M30,14c.49,1.29-.15,2.33-1.44,2.33A3.79,3.79,0,0,1,25.38,14c-.49-1.29.15-2.33,1.44-2.33A3.79,3.79,0,0,1,30,14Z"/><path class="cls-2" d="M29.87,22.94c.49,1.29-.15,2.33-1.44,2.33a3.79,3.79,0,0,1-3.23-2.33c-.49-1.29.15-2.33,1.44-2.33A3.79,3.79,0,0,1,29.87,22.94Z"/><path class="cls-2" d="M35.56,31.61c.49,1.29-.15,2.33-1.44,2.33a3.79,3.79,0,0,1-3.23-2.33c-.49-1.29.15-2.33,1.44-2.33A3.79,3.79,0,0,1,35.56,31.61Z"/><path class="cls-2" d="M38.46,16.32c.49,1.29-.15,2.33-1.44,2.33a3.79,3.79,0,0,1-3.23-2.33C33.3,15,33.94,14,35.23,14A3.79,3.79,0,0,1,38.46,16.32Z"/><path class="cls-2" d="M38.15,22.94c.49,1.29-.15,2.33-1.44,2.33a3.79,3.79,0,0,1-3.23-2.33c-.49-1.29.15-2.33,1.44-2.33A3.79,3.79,0,0,1,38.15,22.94Z"/></svg>