<svg id="Layer_1" data-name="Layer 1" xmlns="http://www.w3.org/2000/svg" viewBox="0 0 50 50"><defs><style>.cls-1{fill:#fff;stroke:#000;stroke-linejoin:round;stroke-width:0.5px;}</style></defs><title>iso</title><path class="cls-1" d="M25.27,9.49h0Z"/><path class="cls-1" d="M36.2,14.25c-.33-1.68-1.2-2.35-2.82-3a26.43,26.43,0,0,0-8.09-1.47,27,27,0,0,0-8.16,1.47c-1.61.67-3.14,1.34-3.47,3L12,23.54V36.75h3v2a1.5,1.5,0,0,0,3,0v-2H32v2a1.5,1.5,0,0,0,3,0v-2h3V23.54ZM19.57,12.75h11c1,0,1,1,0,1h-11C18.57,13.75,18.57,12.75,19.57,12.75ZM16.41,32.34a1.72,1.72,0,1,1,1.73-1.73A1.72,1.72,0,0,1,16.41,32.34Zm8.43-7.59H15.72c-.89,0-1.08-.75-1-1.4l.94-6.5c.13-.81.41-1.1,1.48-1.1H32.79c1.07,0,1.34.23,1.48,1l.94,6.72c.08.64-.11,1.24-1,1.24Zm8.67,7.59a1.72,1.72,0,1,1,1.73-1.73A1.73,1.73,0,0,1,33.51,32.34Z"/></svg>