<svg id="Layer_1" data-name="Layer 1" xmlns="http://www.w3.org/2000/svg" viewBox="0 0 50 50"><defs><style>.cls-1{fill:#fff;stroke:#000;stroke-linejoin:round;stroke-width:0.5px;}</style></defs><title>iso</title><path class="cls-1" d="M38.37,22.26,35.84,15.7c-.49-1.28-1.45-2.15-3.49-2.15h-3.2V11.32c0-.71-.93-1.33-1.55-1.33H23.25A1.33,1.33,0,0,0,22,11.32v2.24H18.44c-2,0-3.11.86-3.61,2.15L12,22.37A3.65,3.65,0,0,0,9,25.91v9h2.38v2.38c0,3.56,4.6,3.6,4.6,0V34.94h18v2.38a2.39,2.39,0,1,0,4.75,0V34.94H41v-9A3.5,3.5,0,0,0,38.37,22.26Zm-13-.39H14.93l2-4.95c.24-.75.62-1,1.5-1h14c.87,0,1.24.25,1.5,1l2,4.95ZM13.94,28.69A1.71,1.71,0,1,1,15.62,27,1.69,1.69,0,0,1,13.94,28.69Zm22.11,0a1.71,1.71,0,0,1,0-3.43,1.71,1.71,0,0,1,0,3.43Z"/></svg>