<svg id="Layer_1" data-name="Layer 1" xmlns="http://www.w3.org/2000/svg" viewBox="0 0 50 50"><defs><style>.cls-1{fill:#fff;stroke:#000;stroke-miterlimit:10;stroke-width:0.5px;}</style></defs><title>iso</title><ellipse class="cls-1" cx="24.54" cy="32.76" rx="12.63" ry="11.92"/><path class="cls-1" d="M27.78,24V8.22a3,3,0,0,0-6,0V24"/><path class="cls-1" d="M33.78,25V9.22a3,3,0,0,0-6,0V24"/><path class="cls-1" d="M21.78,30V22.14c0-1.61-.5-2.91-2-2.91s-2,1.3-2,2.91V30c0,1.61.5,2.91,2,2.91S21.78,31.64,21.78,30Z"/><path class="cls-1" d="M17.78,29.56V23.23a2.51,2.51,0,0,0-5,0v6.34a2.51,2.51,0,0,0,5,0Z"/><path class="cls-1" d="M36.58,36.36a5,5,0,0,0,1.52-3.6,4.53,4.53,0,0,0-4.47-4.67c-.58,0-1.13.46-1.64.46H26.86a2.51,2.51,0,1,0,0,5h2.42a3.52,3.52,0,0,0,1.85,3"/><circle class="cls-1" cx="26.62" cy="31.11" r="1.24"/><circle class="cls-1" cx="19.66" cy="30.09" r="1.24"/><circle class="cls-1" cx="14.67" cy="29.2" r="1.24"/></svg>