<svg id="Layer_1" data-name="Layer 1" xmlns="http://www.w3.org/2000/svg" viewBox="0 0 50 50"><defs><style>.cls-1{fill:none;}.cls-1,.cls-3{stroke:#000;stroke-miterlimit:10;stroke-width:0.5px;}.cls-2,.cls-3{fill:#fff;}</style></defs><title>iso</title><line class="cls-1" x1="24.91" y1="24.59" x2="24.91" y2="46.59"/><line class="cls-1" x1="25" y1="24.83" x2="31.39" y2="45.53"/><line class="cls-1" x1="25" y1="24.83" x2="37.2" y2="42.73"/><line class="cls-1" x1="25" y1="24.83" x2="41.94" y2="38.34"/><line class="cls-1" x1="25" y1="24.83" x2="45.16" y2="32.75"/><line class="cls-1" x1="25" y1="24.83" x2="46.6" y2="26.45"/><line class="cls-1" x1="25" y1="24.83" x2="46.12" y2="20.01"/><line class="cls-1" x1="25" y1="24.83" x2="43.76" y2="14"/><line class="cls-1" x1="25" y1="24.83" x2="39.73" y2="8.95"/><line class="cls-1" x1="25" y1="24.83" x2="34.4" y2="5.32"/><line class="cls-1" x1="25" y1="24.83" x2="28.23" y2="3.41"/><line class="cls-1" x1="25" y1="24.83" x2="21.77" y2="3.41"/><line class="cls-1" x1="25" y1="24.83" x2="15.6" y2="5.32"/><line class="cls-1" x1="25" y1="24.83" x2="10.27" y2="8.95"/><line class="cls-1" x1="25" y1="24.83" x2="6.24" y2="14"/><line class="cls-1" x1="25" y1="24.83" x2="3.88" y2="20.01"/><line class="cls-1" x1="25" y1="24.83" x2="3.4" y2="26.45"/><line class="cls-1" x1="25" y1="24.83" x2="4.84" y2="32.75"/><line class="cls-1" x1="25" y1="24.83" x2="8.06" y2="38.34"/><line class="cls-1" x1="25" y1="24.83" x2="12.8" y2="42.73"/><line class="cls-1" x1="25" y1="24.83" x2="18.61" y2="45.53"/><path class="cls-2" d="M25.29,41.61A16.73,16.73,0,1,1,42,24.87,16.75,16.75,0,0,1,25.29,41.61Z"/><path d="M25.29,8.39A16.48,16.48,0,1,1,8.81,24.87,16.5,16.5,0,0,1,25.29,8.39m0-.5a17,17,0,1,0,17,17,17,17,0,0,0-17-17Z"/><path class="cls-3" d="M23.92,20.56s-1.57,1.92-3.5,1.92-3.5-.86-3.5-1.92,1.57-1.92,3.5-1.92S23.92,20.56,23.92,20.56Z"/><path class="cls-3" d="M26.66,20.56s1.57-1.92,3.5-1.92,3.5.86,3.5,1.92-1.57,1.92-3.5,1.92S26.66,20.56,26.66,20.56Z"/><circle class="cls-3" cx="30.53" cy="20.56" r="1.12"/><circle class="cls-3" cx="20.42" cy="20.56" r="1.12"/><path class="cls-1" d="M16.83,17.72a5.93,5.93,0,0,1,3.65-1,5.56,5.56,0,0,1,2.93,1"/><path class="cls-1" d="M33.75,17.72a5.93,5.93,0,0,0-3.65-1,5.56,5.56,0,0,0-2.93,1"/><path class="cls-1" d="M20.38,30.54a7.26,7.26,0,0,0,10.27,0"/><path class="cls-1" d="M23,34.58a7.28,7.28,0,0,0,5,0"/><line class="cls-1" x1="18.5" y1="32.43" x2="22.73" y2="28.2"/><line class="cls-1" x1="28.04" y1="27.82" x2="32.27" y2="32.05"/><path class="cls-3" d="M26.16,23l.38,3.31a1.09,1.09,0,1,1,0,2,1.52,1.52,0,0,1-2.3,0,1.09,1.09,0,1,1,0-2L24.61,23"/></svg>