<svg id="Layer_1" data-name="Layer 1" xmlns="http://www.w3.org/2000/svg" viewBox="0 0 50 50"><defs><style>.cls-1{fill:#fff;stroke:#000;stroke-linejoin:round;stroke-width:0.5px;}</style></defs><title>iso</title><path class="cls-1" d="M24.26,18.33a2.71,2.71,0,0,1-2.62,2.58V42a2,2,0,1,1-4.08,0v-21a2.66,2.66,0,0,1-2.67-2.75V6.56a.73.73,0,1,1,1.46,0v8.57h1.21V6.52a.7.7,0,1,1,1.41,0v8.61h1.25V6.54a.69.69,0,1,1,1.37,0v8.59h1.25V6.54a.71.71,0,1,1,1.43,0V18.33Z"/><path class="cls-1" d="M35.11,9.25V42A2,2,0,1,1,31,42V29H28.87V9.25a3.14,3.14,0,1,1,6.25,0Z"/></svg>