<svg id="Layer_1" data-name="Layer 1" xmlns="http://www.w3.org/2000/svg" viewBox="0 0 50 50"><defs><style>.cls-1{fill:#fff;}.cls-1,.cls-2{stroke:#000;stroke-linecap:round;stroke-linejoin:round;stroke-width:0.5px;}.cls-2{fill:none;}</style></defs><title>iso</title><path class="cls-1" d="M17.74,14.78a3.66,3.66,0,1,0-3.66-3.66,3.67,3.67,0,0,0,3.66,3.66Z"/><path class="cls-1" d="M15.21,19.46a3.24,3.24,0,1,1,6.38-1.17l1.66,8.24h6.17a2.7,2.7,0,0,1,2.74,2.78V40.5a1.94,1.94,0,1,1-3.88,0c0-2.56,0-8.72,0-8.72H20.4A3.26,3.26,0,0,1,17.12,29l-1.91-9.57Z"/><path class="cls-1" d="M25.4,32.48a1.51,1.51,0,1,1,0,3H19.77a6.59,6.59,0,0,1-6.22-5.26L11.8,21.68a1.46,1.46,0,1,1,2.85-.59l1.68,8.18a3.83,3.83,0,0,0,3.88,3.21Z"/><circle class="cls-1" cx="33.04" cy="12.77" r="5.19"/><polyline class="cls-2" points="33.04 9.91 33.04 12.77 36.17 11.37"/></svg>