<svg id="Layer_1" data-name="Layer 1" xmlns="http://www.w3.org/2000/svg" viewBox="0 0 50 50"><defs><style>.cls-1{fill:#fff;}.cls-1,.cls-2{stroke:#000;stroke-linejoin:round;stroke-width:0.5px;}.cls-2{fill:none;}</style></defs><title>iso</title><polygon class="cls-1" points="27.39 11.89 36.26 11.89 36.26 14.37 29.1 14.37 27.39 11.89 27.39 11.89"/><path class="cls-1" d="M29.4,17a3.36,3.36,0,0,0,3.41,3.39,3.45,3.45,0,0,0,3.46-3.46V15.15H29.17Z"/><path class="cls-1" d="M27.89,32.13,36,21.4H27.72a2.51,2.51,0,0,0-2.1,1l-6.74,8.8a1.65,1.65,0,1,0,2.62,2l6.38-8.48v7.43Z"/><path class="cls-1" d="M38,21.4a2.41,2.41,0,0,1,2.32,2.55V38.11h-11a1.43,1.43,0,0,1-1.43-1.43v-.22A1.43,1.43,0,0,1,29.33,35h7.61V32.47H29.77L38,21.4Z"/><path class="cls-1" d="M24.7,38.1a1.49,1.49,0,0,0,1.51-1.58V34.23H13.46V36.5A1.5,1.5,0,0,0,15,38.1Z"/><path class="cls-1" d="M9.68,32.69a1.5,1.5,0,0,0,1.56,1.55h2.22V21.35h-2.2a1.52,1.52,0,0,0-1.58,1.55v9.79Z"/><line class="cls-1" x1="35.73" y1="21.4" x2="38" y2="21.4"/><line class="cls-2" x1="27.89" y1="32.13" x2="27.91" y2="36.69"/><line class="cls-2" x1="36.94" y1="34.23" x2="36.94" y2="27.63"/><line class="cls-2" x1="36.94" y1="34.23" x2="27.9" y2="34.23"/></svg>