<svg id="Layer_1" data-name="Layer 1" xmlns="http://www.w3.org/2000/svg" viewBox="0 0 50 50"><defs><style>.cls-1{fill:#fff;}</style></defs><title>iso</title><path class="cls-1" d="M16.4,39.28a1.49,1.49,0,0,1,0-3h7.22V26.16L10.78,10.72H39.22L26.61,26.24V36.29h7.22a1.43,1.43,0,0,1,1.49,1.49,1.54,1.54,0,0,1-.37,1,1.45,1.45,0,0,1-1.12.46Zm11-17.37a2.52,2.52,0,1,0-1.81-.74,2.5,2.5,0,0,0,1.81.74h0Z"/><path d="M38.7,11,26.47,26l-.11.14V36.54h7.47a1.24,1.24,0,1,1,0,2.49H16.4a1.19,1.19,0,0,1-.93-.38,1.31,1.31,0,0,1-.31-.87,1.18,1.18,0,0,1,1.24-1.24h7.47V26.07l-.12-.14L11.32,11H38.7M27.34,22.16h0a2.77,2.77,0,1,0-2-.81,2.75,2.75,0,0,0,2,.81M39.75,10.47H10.25L23.37,26.25V36h-7a1.74,1.74,0,0,0,0,3.49H33.83a1.74,1.74,0,1,0,0-3.49h-7V26.33L39.75,10.47ZM27.34,21.66a2.28,2.28,0,1,1,2.3-2.28,2.27,2.27,0,0,1-2.3,2.28h0Z"/></svg>