<svg id="Layer_1" data-name="Layer 1" xmlns="http://www.w3.org/2000/svg" viewBox="0 0 50 50"><defs><style>.cls-1,.cls-2{fill:#fff;}.cls-2{stroke:#000;stroke-miterlimit:10;stroke-width:0.5px;}</style></defs><title>iso</title><path class="cls-1" d="M25,44.72A19.72,19.72,0,1,1,44.72,25,19.74,19.74,0,0,1,25,44.72Z"/><path d="M25,5.53A19.47,19.47,0,1,1,5.53,25,19.49,19.49,0,0,1,25,5.53M25,5A20,20,0,1,0,45,25,20,20,0,0,0,25,5Z"/><path class="cls-2" d="M37.22,27.69c0,6-5.47,10.84-12.22,10.84S12.78,33.68,12.78,27.69"/><path class="cls-2" d="M17.83,16.33c1.08-1,1.66-1.43,2.36-1.43,2.57,0,4.6,4.16-2.36,8.8-7-4.64-4.94-8.8-2.36-8.8C16.17,14.9,16.74,15.28,17.83,16.33Z"/><path class="cls-2" d="M31.83,16.33c1.08-1,1.66-1.43,2.36-1.43,2.57,0,4.6,4.16-2.36,8.8-7-4.64-4.94-8.8-2.36-8.8C30.17,14.9,30.74,15.28,31.83,16.33Z"/></svg>