<svg id="Layer_1" data-name="Layer 1" xmlns="http://www.w3.org/2000/svg" viewBox="0 0 50 50"><defs><style>.cls-1,.cls-2{fill:#fff;stroke:#000;stroke-width:0.5px;}.cls-1{stroke-miterlimit:10;}.cls-2{stroke-linejoin:round;}</style></defs><title>iso</title><path class="cls-1" d="M25,17.09A5.13,5.13,0,1,0,19.87,12,5.14,5.14,0,0,0,25,17.09Z"/><path class="cls-1" d="M25,27.83H19.56V23.89l-4.14,4.18C13.54,30,11,27.55,12.88,25.67l6.86-6.89a2.86,2.86,0,0,1,2.14-.91h6.16a2.94,2.94,0,0,1,2.19.91l6.95,7a1.75,1.75,0,1,1-2.54,2.39l-4.27-4.27v4Z"/><path class="cls-2" d="M30.36,29.85l-4.08,4.08,3,3L26.22,40a1.81,1.81,0,1,0,2.56,2.54l4.84-5.05a3.07,3.07,0,0,0,.23-4.14l-3.48-3.48Z"/><path class="cls-2" d="M19.56,29.85l4.08,4.08-3,3L23.72,40a1.81,1.81,0,1,1-2.56,2.54L16.3,37.48a3.06,3.06,0,0,1-.21-4.14l3.46-3.48Z"/><polygon class="cls-2" points="23.17 33.7 26.86 33.7 30.36 29.68 30.38 27.31 19.49 27.31 19.56 29.96 23.17 33.7"/></svg>