<svg id="Layer_1" data-name="Layer 1" xmlns="http://www.w3.org/2000/svg" viewBox="0 0 50 50"><defs><style>.cls-1,.cls-3{fill:#fff;}.cls-1{stroke:#000;stroke-linejoin:round;stroke-width:0.5px;}.cls-2{fill:none;}</style></defs><title>iso</title><path class="cls-1" d="M27.13,28.2H20.67V32a1.6,1.6,0,0,1-3.19,0V23.66H16.05A1.42,1.42,0,1,1,16,20.83h2.55v0l8.1,0,4.91-4.91v2.5L35,21.82c.79.82.33,1.83-.39,1.83H30.3l0,8.37a1.58,1.58,0,1,1-3.16,0V28.2"/><line class="cls-2" x1="35.05" y1="34.75" x2="15.23" y2="14.91"/><path class="cls-3" d="M25,39.78a14.78,14.78,0,1,1,0-29.57,14.78,14.78,0,1,1,0,29.57ZM15.28,17.12A12.41,12.41,0,0,0,32.71,34.56l.22-.17L15.45,16.9ZM25,12.72a12.21,12.21,0,0,0-7.52,2.43l-.23.17L34.67,32.64l.17-.23A12.19,12.19,0,0,0,25,12.72Z"/><path d="M25,10.47A14.42,14.42,0,0,1,39.67,24.92a14.67,14.67,0,0,1-29.33,0A14.41,14.41,0,0,1,25,10.47h0M34.7,33l.35-.45A12.44,12.44,0,0,0,25,12.47a12.46,12.46,0,0,0-7.67,2.48l-.45.35.41.4,17,16.92.4.4M25,37.52h0a12.53,12.53,0,0,0,7.87-2.76l.44-.35-.4-.4L15.83,16.92l-.4-.4-.35.44A12.67,12.67,0,0,0,25,37.52M25,10h0A15,15,0,1,0,25,40,15.14,15.14,0,0,0,40.17,24.92,14.92,14.92,0,0,0,25,10Zm9.65,22.29-17-16.92A11.94,11.94,0,0,1,25,13h0a12,12,0,0,1,9.65,19.29ZM25,37a12.17,12.17,0,0,1-9.52-19.74L32.55,34.37A12.11,12.11,0,0,1,25,37Z"/></svg>