<svg id="Layer_1" data-name="Layer 1" xmlns="http://www.w3.org/2000/svg" viewBox="0 0 50 50"><defs><style>.cls-1{fill:#fff;}.cls-1,.cls-2{stroke:#000;stroke-miterlimit:10;stroke-width:0.5px;}.cls-2{fill:none;}</style></defs><title>iso</title><path class="cls-1" d="M24.66,11.36A3.35,3.35,0,1,0,21.3,8a3.35,3.35,0,0,0,3.36,3.36Z"/><path class="cls-1" d="M38.77,28.49H33.65V26.19c0-.59-.53-.91-1.14-.9H31.33V16.43c0-2-.91-3.05-3.23-3.05H20.66l-7.07-7.8C12,4,9.44,6,11,7.56l8.7,8.91V43.6a1.74,1.74,0,1,0,3.49,0V28.49h1.16V43.6a1.74,1.74,0,0,0,3.49,0V40.11H38.77c.86,0,.69-1.79.69-2.53V29.32C39.46,28.57,39.59,28.49,38.77,28.49ZM29,26.19v2.29H27.84V18H29Zm3.39,1.71H30.31V26.75h2.08Z"/><path class="cls-1" d="M31.33,25.3s-2.32-.38-2.32.9"/><path class="cls-1" d="M31.33,23.51c0,.25.1,1.74.1,1.74a1.21,1.21,0,0,1-2.43,0V23.4"/><line class="cls-2" x1="27.84" y1="28.49" x2="27.84" y2="40.4"/></svg>