<svg id="Layer_1" data-name="Layer 1" xmlns="http://www.w3.org/2000/svg" viewBox="0 0 50 50"><defs><style>.cls-1{fill:#fff;stroke:#000;stroke-miterlimit:10;stroke-width:0.5px;}</style></defs><title>iso</title><path class="cls-1" d="M33.9,29.2c-2.09,1.85-4.71,1.34-7.68,1.34s-10.44-.07-12-1.34"/><path class="cls-1" d="M16.35,27.2a12.52,12.52,0,0,1-2.16-7.06A12.12,12.12,0,0,1,26.12,7.84,12.12,12.12,0,0,1,38,20.14a12.44,12.44,0,0,1-4.15,9.33"/><path class="cls-1" d="M14.86,29.2h7.89c1.61,0,2.91-.5,2.91-2s-1.3-2-2.91-2H14.86c-1.61,0-2.91.5-2.91,2S13.25,29.2,14.86,29.2Z"/><path class="cls-1" d="M14.86,20.2h7.89a3,3,0,0,0,0-6H14.86a3,3,0,0,0,0,6Z"/><circle class="cls-1" cx="23.15" cy="27.25" r="1.24"/><circle class="cls-1" cx="23.15" cy="17.01" r="1.24"/><path class="cls-1" d="M15.73,14.2H23c1.48,0,2.67-.5,2.67-2s-1.2-2-2.67-2H15.73c-1.48,0-2.67.5-2.67,2S14.26,14.2,15.73,14.2Z"/><circle class="cls-1" cx="23.15" cy="12.02" r="1.24"/><path class="cls-1" d="M15.18,25.2H24c1.78,0,3.23-1,3.23-2.5S25.73,20.2,24,20.2H15.18c-1.78,0-3.23,1-3.23,2.5S13.4,25.2,15.18,25.2Z"/><circle class="cls-1" cx="24.59" cy="21.99" r="1.24"/><path class="cls-1" d="M31.39,14.52c-3.07,0-5.56,3.46-5.56,7.72a8.59,8.59,0,0,0,2.77,6.67l-1.33,9a3.43,3.43,0,1,0,6.75,1l1.49-10.08a4.26,4.26,0,0,0,0-1.38"/><circle class="cls-1" cx="31.35" cy="38.47" r="1.82"/></svg>