<svg id="Layer_1" data-name="Layer 1" xmlns="http://www.w3.org/2000/svg" viewBox="0 0 50 50"><defs><style>.cls-1{fill:#fff;stroke:#000;stroke-miterlimit:10;stroke-width:0.5px;}</style></defs><title>iso</title><path class="cls-1" d="M16.1,20.8c2.09-1.85,4.71-1.34,7.68-1.34s10.44.07,12,1.34"/><path class="cls-1" d="M33.65,22.8a12.52,12.52,0,0,1,2.16,7.06,12.12,12.12,0,0,1-11.93,12.3A12.12,12.12,0,0,1,12,29.86a12.44,12.44,0,0,1,4.15-9.33"/><path class="cls-1" d="M35.14,20.8H27.25c-1.61,0-2.91.5-2.91,2s1.3,2,2.91,2h7.89c1.61,0,2.91-.5,2.91-2S36.75,20.8,35.14,20.8Z"/><path class="cls-1" d="M35.14,29.8H27.25a3,3,0,0,0,0,6h7.89a3,3,0,0,0,0-6Z"/><circle class="cls-1" cx="26.85" cy="22.75" r="1.24"/><circle class="cls-1" cx="26.85" cy="32.99" r="1.24"/><path class="cls-1" d="M34.27,35.8H27c-1.48,0-2.67.5-2.67,2s1.2,2,2.67,2h7.25c1.48,0,2.67-.5,2.67-2S35.74,35.8,34.27,35.8Z"/><circle class="cls-1" cx="26.85" cy="37.98" r="1.24"/><path class="cls-1" d="M34.82,24.8H26c-1.78,0-3.23,1-3.23,2.5s1.45,2.5,3.23,2.5h8.77c1.78,0,3.23-1,3.23-2.5S36.6,24.8,34.82,24.8Z"/><circle class="cls-1" cx="25.41" cy="28.01" r="1.24"/><path class="cls-1" d="M18.61,35.48c3.07,0,5.56-3.46,5.56-7.72a8.59,8.59,0,0,0-2.77-6.67l1.33-9A3.53,3.53,0,0,0,19.9,7.87,3.53,3.53,0,0,0,16,11.09L14.49,21.17a4.26,4.26,0,0,0,0,1.38"/><circle class="cls-1" cx="18.65" cy="11.53" r="1.82"/></svg>