<svg id="Layer_1" data-name="Layer 1" xmlns="http://www.w3.org/2000/svg" viewBox="0 0 50 50"><defs><style>.cls-1,.cls-2{fill:#fff;}.cls-2,.cls-3{stroke:#000;stroke-miterlimit:10;stroke-width:0.5px;}.cls-3{fill:none;}</style></defs><title>iso</title><path class="cls-1" d="M25,44.72A19.72,19.72,0,1,1,44.72,25,19.74,19.74,0,0,1,25,44.72Z"/><path d="M25,5.53A19.47,19.47,0,1,1,5.53,25,19.49,19.49,0,0,1,25,5.53M25,5A20,20,0,1,0,45,25,20,20,0,0,0,25,5Z"/><path class="cls-2" d="M37.22,27.69c0,6-5.47,10.84-12.22,10.84S12.78,33.68,12.78,27.69"/><path class="cls-2" d="M25,18.06a6.92,6.92,0,0,1-13.83,0c0-3.82,3.1-3,6.92-3S25,14.24,25,18.06Z"/><path class="cls-2" d="M38.83,18.06a6.92,6.92,0,0,1-13.83,0c0-3.82,3.1-3,6.92-3S38.83,14.24,38.83,18.06Z"/><line class="cls-3" x1="18.08" y1="15.02" x2="12.15" y2="20.96"/><line class="cls-3" x1="20.68" y1="14.95" x2="12.94" y2="22.69"/><line class="cls-3" x1="34.18" y1="14.95" x2="26.62" y2="22.51"/><line class="cls-3" x1="31.54" y1="15.01" x2="25.62" y2="20.93"/></svg>