<svg id="Layer_1" data-name="Layer 1" xmlns="http://www.w3.org/2000/svg" viewBox="0 0 50 50"><defs><style>.cls-1,.cls-2{fill:#fff;}.cls-2{stroke:#000;stroke-miterlimit:10;stroke-width:0.5px;}</style></defs><title>iso</title><path class="cls-1" d="M25,44.72A19.72,19.72,0,1,1,44.72,25,19.74,19.74,0,0,1,25,44.72Z"/><path d="M25,5.53A19.47,19.47,0,1,1,5.53,25,19.49,19.49,0,0,1,25,5.53M25,5A20,20,0,1,0,45,25,20,20,0,0,0,25,5Z"/><path class="cls-2" d="M37.22,27.69c0,6-5.47,10.84-12.22,10.84S12.78,33.68,12.78,27.69"/><circle class="cls-2" cx="17.62" cy="20.43" r="2.47"/><circle class="cls-2" cx="32.38" cy="20.43" r="2.47"/></svg>