<svg id="Layer_1" data-name="Layer 1" xmlns="http://www.w3.org/2000/svg" viewBox="0 0 50 50"><defs><style>.cls-1,.cls-2{fill:#fff;}.cls-2,.cls-3{stroke:#000;stroke-miterlimit:10;stroke-width:0.5px;}.cls-3{fill:none;}</style></defs><title>iso</title><path class="cls-1" d="M25,44.72A19.72,19.72,0,1,1,44.72,25,19.74,19.74,0,0,1,25,44.72Z"/><path d="M25,5.53A19.47,19.47,0,1,1,5.53,25,19.49,19.49,0,0,1,25,5.53M25,5A20,20,0,1,0,45,25,20,20,0,0,0,25,5Z"/><circle class="cls-2" cx="25" cy="33.11" r="2.47"/><line class="cls-3" x1="14.37" y1="20.65" x2="14.37" y2="41.42"/><polyline class="cls-3" points="12.63 21.37 20.88 17.96 20.88 44.54"/><line class="cls-3" x1="35.63" y1="20.43" x2="35.63" y2="41.2"/><polyline class="cls-3" points="37.37 21.15 29.12 17.74 29.12 44.32"/><line class="cls-3" x1="37.37" y1="21.15" x2="29.12" y2="17.74"/></svg>