<svg id="Layer_1" data-name="Layer 1" xmlns="http://www.w3.org/2000/svg" viewBox="0 0 50 50"><defs><style>.cls-1,.cls-3{fill:#fff;}.cls-2{fill:none;}.cls-2,.cls-3{stroke:#000;stroke-miterlimit:10;stroke-width:0.5px;}.cls-3{fill-rule:evenodd;}</style></defs><title>iso</title><path class="cls-1" d="M30.7,40.83a12.07,12.07,0,0,1-5.32-1.24l-.11-.05-.11.05a12.06,12.06,0,0,1-5.32,1.24,12.19,12.19,0,0,1,0-24.37,12.06,12.06,0,0,1,5.32,1.24l.11.05.11-.05a12.07,12.07,0,0,1,5.32-1.24,12.19,12.19,0,0,1,0,24.37Z"/><path d="M30.7,16.71a11.94,11.94,0,0,1,0,23.87,11.81,11.81,0,0,1-5.21-1.21l-.22-.11-.22.11a11.81,11.81,0,0,1-5.21,1.21,11.94,11.94,0,1,1,0-23.87A11.81,11.81,0,0,1,25,17.92l.22.11.22-.11a11.81,11.81,0,0,1,5.21-1.21m0-.5a12.36,12.36,0,0,0-5.43,1.26,12.44,12.44,0,1,0,0,22.35A12.43,12.43,0,1,0,30.7,16.21Z"/><path class="cls-2" d="M24,19.67a2.6,2.6,0,0,0,3.68,0"/><path class="cls-2" d="M25.89,20.68a6.46,6.46,0,0,0-6.46-6.46"/><path class="cls-3" d="M22.89,15.72a5.13,5.13,0,0,1,5.35-7.1h0a5.13,5.13,0,0,1-5.35,7.1Z"/></svg>