<svg id="Layer_1" data-name="Layer 1" xmlns="http://www.w3.org/2000/svg" viewBox="0 0 50 50"><defs><style>.cls-1{fill:#fff;stroke:#000;stroke-miterlimit:10;stroke-width:0.5px;}</style></defs><title>iso</title><path class="cls-1" d="M38.26,33.34H35a5,5,0,0,0,0-10H31.17a5,5,0,0,0,0-10H27.52c-2.13,0-4.15-3.94-5.46-6.25a.82.82,0,0,0-1.54.38l-1.26,5.86h-.41a5,5,0,0,0,0,10H15a5,5,0,0,0,0,10H11.74a5,5,0,0,0,0,10H38.26a5,5,0,0,0,0-10Z"/><path class="cls-1" d="M29.48,28.44a4.38,4.38,0,0,1-4.62,4.1,4.38,4.38,0,0,1-4.62-4.1"/><circle class="cls-1" cx="22.07" cy="25.69" r="0.94"/><circle class="cls-1" cx="27.64" cy="25.69" r="0.94"/></svg>