<svg id="Layer_1" data-name="Layer 1" xmlns="http://www.w3.org/2000/svg" viewBox="0 0 50 50"><defs><style>.cls-1{fill:#fff;}.cls-2{fill:none;stroke:#000;stroke-miterlimit:10;stroke-width:0.5px;}</style></defs><title>iso</title><path class="cls-1" d="M25,44.72A19.72,19.72,0,1,1,44.72,25,19.74,19.74,0,0,1,25,44.72Z"/><path d="M25,5.53A19.47,19.47,0,1,1,5.53,25,19.49,19.49,0,0,1,25,5.53M25,5A20,20,0,1,0,45,25,20,20,0,0,0,25,5Z"/><line class="cls-2" x1="14.37" y1="32.11" x2="35.63" y2="32.11"/><line class="cls-2" x1="29.12" y1="19.12" x2="35.63" y2="19.12"/><line class="cls-2" x1="14.37" y1="19.12" x2="20.88" y2="19.12"/></svg>