<svg id="Layer_1" data-name="Layer 1" xmlns="http://www.w3.org/2000/svg" viewBox="0 0 50 50"><defs><style>.cls-1{fill:#fff;}.cls-1,.cls-2{stroke:#000;stroke-miterlimit:10;stroke-width:0.5px;}.cls-2{fill:none;}</style></defs><title>iso</title><path class="cls-1" d="M34.68,29.82l-2.39-4.26a2.39,2.39,0,1,1,4.17-2.29l3.05,5.56a10.14,10.14,0,0,1,1.14,5.45,8.81,8.81,0,0,1-8.81,8.31A8.57,8.57,0,0,1,23,34.28,8.49,8.49,0,0,1,30.68,26"/><path class="cls-1" d="M34.68,29.82,25.3,20.66a1.7,1.7,0,0,0-2.4,2.4l6.28,6.28"/><path class="cls-1" d="M28.76,28.93,21.85,22a1.69,1.69,0,1,0-2.38,2.38l6.91,6.91"/><path class="cls-1" d="M28,32.83,21,25.92a1.7,1.7,0,1,0-2.4,2.4l6.91,6.91"/><path class="cls-1" d="M25.63,35.15l-3-3a1.7,1.7,0,1,0-2.4,2.4l5.64,5.84"/><path class="cls-1" d="M37.38,29.43,35,25.17a2.39,2.39,0,1,1,4.17-2.29l3.05,5.56a10.14,10.14,0,0,1,1.14,5.45,8.81,8.81,0,0,1-8.81,8.31,8.57,8.57,0,0,1-8.81-8.31,8.49,8.49,0,0,1,7.64-8.24"/><path class="cls-1" d="M37.38,29.43,28,20.28a1.7,1.7,0,0,0-2.4,2.4L31.88,29"/><path class="cls-1" d="M31.46,28.55l-6.91-6.91A1.69,1.69,0,1,0,22.18,24l6.91,6.91"/><path class="cls-1" d="M30.65,32.44l-6.91-6.91a1.7,1.7,0,1,0-2.4,2.4l6.91,6.91"/><path class="cls-1" d="M28.34,34.76l-3-3a1.7,1.7,0,1,0-2.4,2.4L28.52,40"/><circle class="cls-1" cx="23.97" cy="32.89" r="0.86"/><circle class="cls-1" cx="22.5" cy="26.88" r="0.86"/><circle class="cls-1" cx="23.37" cy="22.92" r="0.86"/><circle class="cls-1" cx="26.78" cy="21.44" r="0.86"/><circle class="cls-1" cx="37.38" cy="23.46" r="0.86"/><line class="cls-2" x1="19.14" y1="16.44" x2="14.32" y2="9.8"/><line class="cls-2" x1="14.39" y1="22.92" x2="6.62" y2="20.4"/><line class="cls-2" x1="14.69" y1="30.87" x2="6.62" y2="33.49"/><line class="cls-2" x1="18.94" y1="37.74" x2="14.32" y2="44.09"/><line class="cls-2" x1="34.68" y1="16.06" x2="39.23" y2="9.8"/><line class="cls-2" x1="26.15" y1="5.91" x2="26.15" y2="14.91"/></svg>