<svg id="Layer_1" data-name="Layer 1" xmlns="http://www.w3.org/2000/svg" viewBox="0 0 50 50"><defs><style>.cls-1{fill:#fff;stroke:#000;stroke-linejoin:round;stroke-width:0.5px;}</style></defs><title>iso</title><path class="cls-1" d="M23.59,32.58a2.35,2.35,0,1,0,0,4.7H42.37a2.35,2.35,0,1,0,0-4.7Z"/><path class="cls-1" d="M42.61,12.72H13.56c-1.16,0-1.16,2.32,0,2.32H24.23c.72,0,1.08-1.16,1.08-1.16h2.19v3.49h1.16V13.88h2.58S31.6,15,32.3,15H42.61C44.94,15,44.94,12.72,42.61,12.72Z"/><path class="cls-1" d="M44.54,26.76l-2.17-4.89c-.77-1.94-2.44-3.35-5.43-3.35H13.55a3.74,3.74,0,0,0-4.05-3.14,4.29,4.29,0,0,0,0,8.57,4.2,4.2,0,0,0,3.37-1.72l9,3.49L23,28.37a2.27,2.27,0,0,0,2.3,1.77H42.08C44,30.15,45.3,28.58,44.54,26.76Zm-35-4.37a2.72,2.72,0,0,1,0-5.45,2.36,2.36,0,0,1,2.42,1.58H10.08C8.37,18.53,8,20.38,9.51,21l1.82.7A2.66,2.66,0,0,1,9.49,22.39ZM31,24.34H28.67V19.69H31Zm4.65,0H33.32V19.69h2.32Zm2.32,0V19.65a3.73,3.73,0,0,1,2.6,2.45l1.14,2.24Z"/></svg>