<svg id="Layer_1" data-name="Layer 1" xmlns="http://www.w3.org/2000/svg" viewBox="0 0 50 50"><defs><style>.cls-1{fill:#fff;}.cls-1,.cls-2{stroke:#000;stroke-miterlimit:10;stroke-width:0.5px;}.cls-2{fill:none;}</style></defs><title>iso</title><path class="cls-1" d="M14,11.88a8.54,8.54,0,0,0-8.5,8.75v8.75a8.5,8.5,0,1,0,17,0V20.63A8.54,8.54,0,0,0,14,11.88Z"/><path class="cls-2" d="M5.52,21.91A5.22,5.22,0,1,1,5.46,28"/><circle class="cls-1" cx="9.73" cy="25" r="3.69"/><path class="cls-1" d="M36,11.88a8.54,8.54,0,0,0-8.5,8.75v8.75a8.5,8.5,0,1,0,17,0V20.63A8.54,8.54,0,0,0,36,11.88Z"/><path class="cls-2" d="M27.52,21.91A5.22,5.22,0,1,1,27.46,28"/><circle class="cls-1" cx="31.73" cy="25" r="3.69"/></svg>