<svg id="Layer_1" data-name="Layer 1" xmlns="http://www.w3.org/2000/svg" viewBox="0 0 50 50"><defs><style>.cls-1,.cls-2{fill:#fff;}.cls-2,.cls-3{stroke:#000;stroke-miterlimit:10;stroke-width:0.5px;}.cls-3{fill:none;}</style></defs><title>iso</title><path class="cls-1" d="M24.74,44.72A19.72,19.72,0,1,1,44.45,25,19.74,19.74,0,0,1,24.74,44.72Z"/><path d="M24.74,5.53A19.47,19.47,0,1,1,5.27,25,19.49,19.49,0,0,1,24.74,5.53m0-.5a20,20,0,1,0,20,20,20,20,0,0,0-20-20Z"/><circle class="cls-2" cx="17.36" cy="20.43" r="2.47"/><circle class="cls-2" cx="32.11" cy="20.43" r="2.47"/><path class="cls-3" d="M24.74,28.59l3,1.45a.8.8,0,0,1,0,1.49l-1.58.76a.74.74,0,0,0,0,1.38l1.58.76a.8.8,0,0,1,0,1.49l-3,1.45"/><path class="cls-2" d="M39.8,29.8c1.62-.91,2.43-1.18,3.26-1,3.06.81,4.16,6.4-5.59,9.73-6.82-7.71-3.1-12,0-11.22C38.28,27.58,38.85,28.21,39.8,29.8Z"/></svg>