<svg id="Layer_1" data-name="Layer 1" xmlns="http://www.w3.org/2000/svg" viewBox="0 0 50 50"><defs><style>.cls-1{fill:#fff;}.cls-1,.cls-2{stroke:#000;stroke-miterlimit:10;stroke-width:0.5px;}.cls-2{fill:none;}</style></defs><title>iso</title><rect class="cls-1" x="9.1" y="31.78" width="26.43" height="4.23"/><line class="cls-2" x1="37.02" y1="31.71" x2="37.02" y2="36"/><line class="cls-2" x1="39.24" y1="31.71" x2="39.24" y2="36"/><path class="cls-2" d="M38.57,28.77a2.32,2.32,0,0,0,.4-4.61,3.43,3.43,0,0,0-2.65-4.28A5.06,5.06,0,0,0,32.14,12a5.12,5.12,0,0,0-.57,0"/><path class="cls-2" d="M30.58,10a5.06,5.06,0,0,0,.57,10.09l.23,0a3.45,3.45,0,0,0,3.89,4.63,2.32,2.32,0,0,0,2.3,2.08"/></svg>