<svg id="Layer_1" data-name="Layer 1" xmlns="http://www.w3.org/2000/svg" viewBox="0 0 50 50"><defs><style>.cls-1,.cls-2{fill:#fff;}.cls-2{stroke:#000;stroke-miterlimit:10;stroke-width:0.5px;}</style></defs><title>iso</title><path class="cls-1" d="M25,44.72A19.72,19.72,0,1,1,44.72,25,19.74,19.74,0,0,1,25,44.72Z"/><path d="M25,5.53A19.47,19.47,0,1,1,5.53,25,19.49,19.49,0,0,1,25,5.53M25,5A20,20,0,1,0,45,25,20,20,0,0,0,25,5Z"/><path class="cls-2" d="M13.7,34.4A12.32,12.32,0,0,1,25,27.69a12.34,12.34,0,0,1,11.26,6.62"/><circle class="cls-2" cx="17.62" cy="20.43" r="2.47"/><circle class="cls-2" cx="32.38" cy="20.43" r="2.47"/></svg>